<?xml version="1.0" encoding="UTF-8"?>
<!DOCTYPE svg PUBLIC "-//W3C//DTD SVG 1.1//EN" "http://www.w3.org/Graphics/SVG/1.1/DTD/svg11.dtd">
<svg xmlns="http://www.w3.org/2000/svg" version="1.1" width="512px" height="512px" style="shape-rendering:geometricPrecision; text-rendering:geometricPrecision; image-rendering:optimizeQuality; fill-rule:evenodd; clip-rule:evenodd" xmlns:xlink="http://www.w3.org/1999/xlink">
<g><path style="opacity:0.987" fill="#000000" d="M 115.5,63.5 C 164.501,63.3333 213.501,63.5 262.5,64C 277.473,71.9243 280.973,83.4243 273,98.5C 269.731,101.883 265.897,104.383 261.5,106C 215.833,106.333 170.167,106.667 124.5,107C 114.667,108.833 108.833,114.667 107,124.5C 106.333,211.833 106.333,299.167 107,386.5C 108.833,396.333 114.667,402.167 124.5,404C 211.833,404.667 299.167,404.667 386.5,404C 396.333,402.167 402.167,396.333 404,386.5C 404.333,340.833 404.667,295.167 405,249.5C 408.393,239.21 415.559,233.876 426.5,233.5C 436.449,234.226 443.283,239.226 447,248.5C 447.667,297.5 447.667,346.5 447,395.5C 440.41,423.757 422.91,440.924 394.5,447C 301.833,447.667 209.167,447.667 116.5,447C 88.1171,440.951 70.6171,423.784 64,395.5C 63.3333,302.167 63.3333,208.833 64,115.5C 70.6811,87.6527 87.8478,70.3193 115.5,63.5 Z"/></g>
<g><path style="opacity:0.974" fill="#000000" d="M 333.5,63.5 C 366.502,63.3334 399.502,63.5 432.5,64C 440,66.1667 444.833,71 447,78.5C 447.979,112.227 447.646,145.894 446,179.5C 440.169,189.899 431.335,193.732 419.5,191C 411.611,188.742 406.778,183.575 405,175.5C 404.667,163.167 404.333,150.833 404,138.5C 359.833,182.667 315.667,226.833 271.5,271C 258.899,280.371 247.399,279.204 237,267.5C 232.155,258.623 232.488,249.957 238,241.5C 282.833,196.667 327.667,151.833 372.5,107C 360.167,106.667 347.833,106.333 335.5,106C 321.895,101.3 316.728,91.8 320,77.5C 322.687,70.981 327.187,66.3143 333.5,63.5 Z"/></g>
</svg>
