<?xml version="1.0" encoding="UTF-8"?>
<!DOCTYPE svg PUBLIC "-//W3C//DTD SVG 1.1//EN" "http://www.w3.org/Graphics/SVG/1.1/DTD/svg11.dtd">
<svg xmlns="http://www.w3.org/2000/svg" version="1.1" width="509px" height="452px" style="shape-rendering:geometricPrecision; text-rendering:geometricPrecision; image-rendering:optimizeQuality; fill-rule:evenodd; clip-rule:evenodd" xmlns:xlink="http://www.w3.org/1999/xlink">
<g><path style="opacity:0.988" fill="#000000" d="M 231.5,91.5 C 243.617,89.8049 252.117,94.4715 257,105.5C 257.333,143.833 257.667,182.167 258,220.5C 331.122,177.022 404.622,134.189 478.5,92C 490.626,89.8115 499.126,94.3115 504,105.5C 504.667,192.5 504.667,279.5 504,366.5C 496.771,380.353 486.271,383.52 472.5,376C 401.298,334.234 329.965,292.734 258.5,251.5C 257.667,289.829 257.167,328.162 257,366.5C 252.67,376.249 245.17,380.749 234.5,380C 218.914,372.068 203.581,363.735 188.5,355C 130.426,320.601 72.0926,286.601 13.5,253C 1.83254,243.666 0.499207,232.999 9.5,221C 83.4634,177.527 157.463,134.36 231.5,91.5 Z"/></g>
</svg>
