<?xml version="1.0" encoding="UTF-8"?>
<!DOCTYPE svg PUBLIC "-//W3C//DTD SVG 1.1//EN" "http://www.w3.org/Graphics/SVG/1.1/DTD/svg11.dtd">
<svg xmlns="http://www.w3.org/2000/svg" version="1.1" width="318px" height="452px" style="shape-rendering:geometricPrecision; text-rendering:geometricPrecision; image-rendering:optimizeQuality; fill-rule:evenodd; clip-rule:evenodd" xmlns:xlink="http://www.w3.org/1999/xlink">
<g><path style="opacity:0.965" fill="#000000" d="M 243.5,88.5 C 247.131,88.1604 250.464,88.9937 253.5,91C 273.612,107.477 293.445,124.311 313,141.5C 315,144.833 315,148.167 313,151.5C 294.833,167 276.667,182.5 258.5,198C 255.772,200.392 252.772,202.392 249.5,204C 244.186,205.26 240.353,203.426 238,198.5C 237.5,187.505 237.333,176.505 237.5,165.5C 220.64,162.631 205.64,166.464 192.5,177C 185.962,185.908 179.795,195.074 174,204.5C 166.5,192.833 159,181.167 151.5,169.5C 171.074,137.381 199.741,123.381 237.5,127.5C 237.333,116.495 237.5,105.495 238,94.5C 239.36,91.9774 241.193,89.9774 243.5,88.5 Z"/></g>
<g><path style="opacity:0.966" fill="#000000" d="M 3.5,127.5 C 25.1692,127.333 46.8359,127.5 68.5,128C 91.0029,131.327 108.836,142.16 122,160.5C 144.938,197.767 168.271,234.767 192,271.5C 196.954,276.397 202.787,279.897 209.5,282C 218.775,283.353 228.109,283.853 237.5,283.5C 237.333,272.495 237.5,261.495 238,250.5C 240.564,245.921 244.397,244.088 249.5,245C 269.123,260.288 288.456,275.954 307.5,292C 316.833,299 316.833,306 307.5,313C 288.5,328.667 269.5,344.333 250.5,360C 244.799,361.565 240.633,359.732 238,354.5C 237.5,343.505 237.333,332.505 237.5,321.5C 202.656,325.648 175.156,313.648 155,285.5C 133.416,251.334 112.083,217.001 91,182.5C 84.5345,173.343 75.7012,167.843 64.5,166C 44.1694,165.5 23.8361,165.333 3.5,165.5C 3.5,152.833 3.5,140.167 3.5,127.5 Z"/></g>
<g><path style="opacity:0.96" fill="#000000" d="M 103.5,245.5 C 105.592,245.561 107.092,246.561 108,248.5C 114.302,258.967 120.802,269.3 127.5,279.5C 114.632,302.85 94.9652,316.683 68.5,321C 46.8359,321.5 25.1692,321.667 3.5,321.5C 3.5,308.833 3.5,296.167 3.5,283.5C 25.5449,283.945 47.5449,283.445 69.5,282C 76.2128,279.897 82.0461,276.397 87,271.5C 93.2709,263.284 98.7709,254.618 103.5,245.5 Z"/></g>
</svg>
