<?xml version="1.0" encoding="UTF-8"?>
<!DOCTYPE svg PUBLIC "-//W3C//DTD SVG 1.1//EN" "http://www.w3.org/Graphics/SVG/1.1/DTD/svg11.dtd">
<svg xmlns="http://www.w3.org/2000/svg" version="1.1" width="508px" height="452px" style="shape-rendering:geometricPrecision; text-rendering:geometricPrecision; image-rendering:optimizeQuality; fill-rule:evenodd; clip-rule:evenodd" xmlns:xlink="http://www.w3.org/1999/xlink">
<g><path style="opacity:0.988" fill="#000000" d="M 18.5,91.5 C 24.037,91.0866 29.3703,91.9199 34.5,94C 105.669,136.086 177.002,177.919 248.5,219.5C 249.333,182.505 249.833,145.505 250,108.5C 255.474,93.0156 265.974,88.1823 281.5,94C 351.838,135.838 422.505,177.171 493.5,218C 507.256,228.542 507.922,239.876 495.5,252C 421.795,295.186 347.795,337.852 273.5,380C 261.012,381.184 253.178,375.684 250,363.5C 249.667,326.167 249.333,288.833 249,251.5C 175.178,294.992 101.011,337.826 26.5,380C 14.0118,381.184 6.17848,375.684 3,363.5C 2.33333,278.5 2.33333,193.5 3,108.5C 5.25603,100.081 10.4227,94.4147 18.5,91.5 Z"/></g>
</svg>
